# xmcd
#
# Track frame offsets: 
#        150
#        20022
#        35890
#        47780
#        63595
#        94827
#        112592
#        128442
#        144300
#        161375
#
# Disc length: 2406 seconds
#
# Revision: 0
# Processed by: cddbd v1.5.1PL0 Copyright (c) Steve Scherf et al.
# Submitted via: ExactAudioCopy v0.95b1
#
DISCID=7e09640a
DTITLE=Royals - Spring 76
DYEAR=1976
DGENRE=Rock
TTITLE0=High
TTITLE1=Dancing in the Street
TTITLE2=Badge
TTITLE3=Night Funk
TTITLE4=Hoochie Coochie Man
TTITLE5=Everything's Allright
TTITLE6=The Real Me
TTITLE7=You Can't Go Half Way (You Got to Go All the Way)
TTITLE8=Rock Me
TTITLE9=Hgih
EXTD=
EXTT0=
EXTT1=
EXTT2=
EXTT3=
EXTT4=
EXTT5=
EXTT6=
EXTT7=
EXTT8=
EXTT9=
PLAYORDER=
